<svg width="16" height="16" viewBox="0 0 16 16" fill="none" xmlns="http://www.w3.org/2000/svg">
<g clip-path="url(#clip0_681_39837)">
<path d="M13.9887 7.25379L7.01913 14.223C6.8986 14.3439 6.68787 14.3439 6.56703 14.223L2.29915 9.95511C2.11177 9.76774 1.80833 9.76774 1.62098 9.95511C1.43363 10.1423 1.43363 10.4461 1.62098 10.6333L5.88889 14.9012C6.13044 15.1429 6.45162 15.2759 6.79328 15.2759C7.13493 15.2759 7.45611 15.1429 7.69751 14.9012L14.6669 7.93196C14.8543 7.74474 14.8543 7.44099 14.6669 7.25379C14.4795 7.06644 14.1761 7.06644 13.9887 7.25379Z" fill="#00205C"/>
<path d="M6.14284 13.387C6.4549 13.6992 6.96105 13.6992 7.27327 13.387L14.2426 6.4176C14.5854 6.07485 14.7393 5.42417 14.5868 4.96423L13.8105 2.62373C13.658 2.16379 13.1585 1.67619 12.6949 1.53455L10.1891 0.769734C9.7257 0.628254 9.07211 0.791311 8.72936 1.13409L1.87467 7.98851C1.56261 8.30072 1.56261 8.80672 1.87467 9.11893L6.14284 13.387ZM10.5759 2.98983C11.0443 2.52141 11.8035 2.52141 12.2718 2.98983C12.7402 3.45826 12.7402 4.21749 12.2718 4.68589C11.8033 5.15432 11.0441 5.15432 10.5759 4.68589C10.1076 4.21749 10.1076 3.45826 10.5759 2.98983Z" fill="#00205C"/>
</g>
<defs>
<clipPath id="clip0_681_39837">
<rect width="14.5561" height="14.5561" fill="white" transform="translate(0.863281 0.720703)"/>
</clipPath>
</defs>
</svg>
