<svg width="17" height="16" viewBox="0 0 17 16" fill="none" xmlns="http://www.w3.org/2000/svg">
<g clip-path="url(#clip0_590_33900)">
<path d="M2.9995 9.89576H4.61892C4.88709 9.89576 5.10474 9.67811 5.10474 9.40993V7.79051C5.10474 7.52234 4.88709 7.30469 4.61892 7.30469H2.9995C2.73132 7.30469 2.51367 7.52234 2.51367 7.79051V9.40993C2.51367 9.67811 2.73132 9.89576 2.9995 9.89576Z" fill="white"/>
<path d="M2.9995 13.7825H4.61892C4.88709 13.7825 5.10474 13.5648 5.10474 13.2967V11.6772C5.10474 11.4091 4.88709 11.1914 4.61892 11.1914H2.9995C2.73132 11.1914 2.51367 11.4091 2.51367 11.6772V13.2967C2.51367 13.5648 2.73132 13.7825 2.9995 13.7825Z" fill="white"/>
<path d="M7.53465 9.89576H9.15407C9.42225 9.89576 9.6399 9.67811 9.6399 9.40993V7.79051C9.6399 7.52234 9.42225 7.30469 9.15407 7.30469H7.53465C7.26648 7.30469 7.04883 7.52234 7.04883 7.79051V9.40993C7.04883 9.67811 7.26648 9.89576 7.53465 9.89576Z" fill="white"/>
<path d="M7.53465 13.7825H9.15407C9.42225 13.7825 9.6399 13.5648 9.6399 13.2967V11.6772C9.6399 11.4091 9.42225 11.1914 9.15407 11.1914H7.53465C7.26648 11.1914 7.04883 11.4091 7.04883 11.6772V13.2967C7.04883 13.5648 7.26648 13.7825 7.53465 13.7825Z" fill="white"/>
<path d="M12.0679 9.89576H13.6873C13.9555 9.89576 14.1731 9.67811 14.1731 9.40993V7.79051C14.1731 7.52234 13.9555 7.30469 13.6873 7.30469H12.0679C11.7997 7.30469 11.582 7.52234 11.582 7.79051V9.40993C11.582 9.67811 11.7997 9.89576 12.0679 9.89576Z" fill="white"/>
<path d="M14.1735 2.12299H13.5257V0.827457C13.5257 0.469888 13.2355 0.179688 12.8779 0.179688H12.2302C11.8726 0.179688 11.5824 0.469888 11.5824 0.827457V2.12299H5.1047V0.827457C5.1047 0.469888 4.8145 0.179688 4.45693 0.179688H3.80916C3.45159 0.179688 3.16139 0.469888 3.16139 0.827457V2.12299H2.51362C1.44221 2.12299 0.570312 2.99489 0.570312 4.0663V13.7828C0.570312 14.8542 1.44221 15.7261 2.51362 15.7261H14.1735C15.2449 15.7261 16.1168 14.8542 16.1168 13.7828V4.0663C16.1168 2.99489 15.2449 2.12299 14.1735 2.12299ZM14.8212 13.7828C14.8212 14.1398 14.5304 14.4306 14.1735 14.4306H2.51362C2.1567 14.4306 1.86585 14.1398 1.86585 13.7828V6.68329H14.8212V13.7828Z" fill="white"/>
</g>
<defs>
<clipPath id="clip0_590_33900">
<rect width="15.5465" height="15.5465" fill="white" transform="translate(0.570312 0.181641)"/>
</clipPath>
</defs>
</svg>
