<svg width="57" height="114" viewBox="0 0 57 114" fill="none" xmlns="http://www.w3.org/2000/svg">
<g clip-path="url(#clip0_1402_29554)">
<path d="M56.1064 68.4002C56.8507 73.7652 55.3653 84.0998 43.2206 90.2189C37.5423 93.0818 31.8925 92.9704 25.6588 92.7772C19.6289 92.5841 14.9027 92.283 9.57612 97.9166C4.62998 103.143 -10.6571 119.908 -26.5423 110.013C-33.0729 105.949 -34.8891 98.4244 -33.5955 91.4986C-31.8797 82.2506 -26.1301 72.6515 -19.6348 65.6196C-12.0932 57.4474 -2.16225 51.1642 8.85377 47.8422C11.6248 47.0015 14.2598 46.5139 17.1255 46.2437C27.8688 45.2303 39.1399 47.9657 47.462 54.4073C52.4173 58.2397 55.3891 63.1983 56.1064 68.4002Z" fill="#DB4530"/>
</g>
<path d="M16.741 6.64261C9.70432 10.3114 6.36536 17.8223 9.28319 23.4186C12.201 29.0149 20.2707 30.5774 27.3074 26.9086C34.344 23.2398 37.683 15.7289 34.7651 10.1326C31.8473 4.53632 23.7776 2.97379 16.741 6.64261Z" fill="#55C1F9"/>
<defs>
<clipPath id="clip0_1402_29554">
<rect width="67.0641" height="90.2473" fill="white" transform="matrix(0.000491495 -1 -1 -0.000491494 56.2473 113.109)"/>
</clipPath>
</defs>
</svg>
