<svg width="1221" height="578" viewBox="0 0 1221 578" fill="none" xmlns="http://www.w3.org/2000/svg">
<ellipse rx="15.4376" ry="9.65012" transform="matrix(-0.836945 0.547287 0.547288 0.836945 1168.2 16.5273)" fill="#55C1F9"/>
<g clip-path="url(#clip0_1354_29555)">
<path d="M56.1064 191.4C56.8507 196.765 55.3653 207.1 43.2206 213.219C37.5423 216.082 31.8925 215.97 25.6588 215.777C19.6289 215.584 14.9027 215.283 9.57612 220.917C4.62998 226.143 -10.6571 242.908 -26.5423 233.013C-33.0729 228.949 -34.8891 221.424 -33.5955 214.499C-31.8797 205.251 -26.1301 195.651 -19.6348 188.62C-12.0932 180.447 -2.16225 174.164 8.85377 170.842C11.6248 170.002 14.2598 169.514 17.1255 169.244C27.8688 168.23 39.1399 170.966 47.462 177.407C52.4173 181.24 55.3891 186.198 56.1064 191.4Z" fill="#DB4530"/>
</g>
<path d="M16.741 129.643C9.70432 133.311 6.36536 140.822 9.28319 146.419C12.201 152.015 20.2707 153.577 27.3074 149.909C34.344 146.24 37.683 138.729 34.7651 133.133C31.8473 127.536 23.7776 125.974 16.741 129.643Z" fill="#55C1F9"/>
<path d="M1155.28 527.692C1148.93 534.855 1146.12 544.637 1139.7 551.739C1133.48 558.624 1123.99 562.415 1114.72 561.709C1109.06 561.278 1102.76 558.41 1101.51 552.867C1100.43 548.11 1103.46 542.901 1101.56 538.407C1100.05 534.811 1095.9 533.094 1092.04 532.542C1088.18 531.991 1084.16 532.223 1080.49 530.884C1073 528.15 1069.07 518.769 1071.49 511.176C1073.91 503.582 1081.7 498.369 1089.66 497.964C1094.98 497.695 1100.25 499.287 1105.57 499.256C1116.54 499.193 1126.45 492.187 1133.13 483.493C1139.81 474.8 1143.89 464.453 1148.58 454.542C1151.81 447.686 1156.02 440.408 1163.19 437.952C1171.11 435.237 1180.35 439.95 1184.3 447.346C1188.24 454.744 1187.53 463.979 1184.08 471.605C1181.72 476.806 1178.1 482.511 1180.39 487.75C1183.47 494.786 1194.82 494.95 1197.8 502.031C1199.57 506.257 1197.27 511.35 1193.56 514.021C1187.54 518.348 1181.14 516.571 1174.43 517.518C1167.13 518.549 1160.18 522.167 1155.28 527.692Z" fill="#D47A34"/>
<defs>
<clipPath id="clip0_1354_29555">
<rect width="67.0641" height="90.2473" fill="white" transform="matrix(0.000491495 -1 -1 -0.000491494 56.2473 236.109)"/>
</clipPath>
</defs>
</svg>
