<svg width="17" height="16" viewBox="0 0 17 16" fill="none" xmlns="http://www.w3.org/2000/svg">
<g clip-path="url(#clip0_590_33918)">
<path d="M14.9256 7.15984L7.48189 14.6032C7.35316 14.7323 7.12809 14.7323 6.99903 14.6032L2.44079 10.0449C2.24066 9.84481 1.91658 9.84481 1.71648 10.0449C1.51638 10.2449 1.51638 10.5693 1.71648 10.7692L6.27475 15.3275C6.53274 15.5856 6.87576 15.7277 7.24067 15.7277C7.60557 15.7277 7.94859 15.5856 8.20642 15.3275L15.6499 7.88414C15.8501 7.68418 15.8501 7.35977 15.6499 7.15984C15.4498 6.95974 15.1257 6.95974 14.9256 7.15984Z" fill="white"/>
<path d="M6.5468 13.7098C6.88009 14.0433 7.42068 14.0433 7.75413 13.7098L15.1976 6.26626C15.5637 5.90018 15.7281 5.20523 15.5653 4.714L14.7361 2.21427C14.5732 1.72304 14.0398 1.20226 13.5446 1.05099L10.8684 0.23414C10.3734 0.083035 9.67536 0.257185 9.30929 0.623285L1.98825 7.94404C1.65496 8.27749 1.65496 8.81791 1.98825 9.15137L6.5468 13.7098ZM11.2814 2.60528C11.7817 2.10498 12.5926 2.10498 13.0927 2.60528C13.593 3.10558 13.593 3.91646 13.0927 4.41673C12.5924 4.91703 11.7815 4.91703 11.2814 4.41673C10.7813 3.91646 10.7813 3.10558 11.2814 2.60528Z" fill="white"/>
</g>
<defs>
<clipPath id="clip0_590_33918">
<rect width="15.5465" height="15.5465" fill="white" transform="translate(0.90625 0.181641)"/>
</clipPath>
</defs>
</svg>
