<svg width="16" height="16" viewBox="0 0 16 16" fill="none" xmlns="http://www.w3.org/2000/svg">
<g clip-path="url(#clip0_590_33910)">
<path d="M7.77252 7.78293C9.50102 7.78293 10.9024 6.0809 10.9024 3.98133C10.9024 1.88171 10.4423 0.179688 7.77252 0.179688C5.10275 0.179688 4.64258 1.88171 4.64258 3.98133C4.64258 6.0809 6.04394 7.78293 7.77252 7.78293Z" fill="white"/>
<path d="M13.6836 13.6894C13.6853 13.6541 13.6842 13.4445 13.6836 13.6894V13.6894Z" fill="white"/>
<path d="M13.6798 13.4375C13.6218 9.78002 13.1441 8.73783 9.48882 8.07812C9.48882 8.07812 8.97427 8.73379 7.77498 8.73379C6.57568 8.73379 6.06105 8.07812 6.06105 8.07812C2.44561 8.73063 1.93888 9.75737 1.87225 13.3187C1.86679 13.6095 1.86426 13.6248 1.86328 13.591C1.8635 13.6543 1.86377 13.7713 1.86377 13.9753C1.86377 13.9753 2.73402 15.7297 7.77498 15.7297C12.8158 15.7297 13.6862 13.9753 13.6862 13.9753C13.6862 13.8442 13.6863 13.7531 13.6864 13.6911C13.6854 13.7119 13.6835 13.6715 13.6798 13.4375Z" fill="white"/>
</g>
<defs>
<clipPath id="clip0_590_33910">
<rect width="15.5465" height="15.5465" fill="white" transform="translate(0 0.181641)"/>
</clipPath>
</defs>
</svg>
