<svg xmlns="http://www.w3.org/2000/svg" viewBox="0 0 139.27 138.32"><defs><style>.cls-1{fill:#f0be4c;}</style></defs><title>Asset 1</title><g id="Layer_2" data-name="Layer 2"><g id="Layer_1-2" data-name="Layer 1"><path class="cls-1" d="M101.84,125.58a11.41,11.41,0,0,1-7.62-8.45c-.29-1.32-.35-4.74-2.09-5.07s-4.15,2.12-5.35,3.1c-7.8,6.36-15,13.82-24,18.51-7.47,3.88-16.42,6.05-24.95,3.66-3.61-1-7.7-3.25-8.71-7.18-.59-2.31.29-4.43,1.55-6.27,1.54-2.25,13.78-12.46,13.52-17.44-.22-4.23-4.34-3.89-7.08-2.46-4.2,2.18-7.68,5.85-11.25,8.88C16.27,121,6.49,124.08.9,114.65c-2.47-4.17-.33-11.31,12.52-18.24C68.12,66.84,75.24,38.93,79.77,29.34,82,24.64,91.59-5.4,104.36.85c4.23,2.08,11.13,10.44,2.21,38-1.61,5-6.87,19.43-5.6,22.39,2.33,5.46,20.18-30.8,29.37-14.64,4.49,7.91-1.71,17.24-5.22,23-2.4,3.93-11.36,17.54-7.94,21.23,5.07,5.45,12.65-12.7,17.82-11.44s4.54,7.8,3.63,11.62c-2.18,9.15-7.9,16.83-13.9,23.77-5.58,6.48-13.17,14.26-22.85,10.8Z"/></g></g></svg>