<svg width="15" height="16" viewBox="0 0 15 16" fill="none" xmlns="http://www.w3.org/2000/svg">
<g clip-path="url(#clip0_681_39819)">
<path d="M2.65996 9.81664H4.17622C4.42731 9.81664 4.6311 9.61286 4.6311 9.36177V7.8455C4.6311 7.59441 4.42731 7.39062 4.17622 7.39062H2.65996C2.40886 7.39062 2.20508 7.59441 2.20508 7.8455V9.36177C2.20508 9.61286 2.40886 9.81664 2.65996 9.81664Z" fill="#00205C"/>
<path d="M2.65996 13.4553H4.17622C4.42731 13.4553 4.6311 13.2515 4.6311 13.0004V11.4842C4.6311 11.2331 4.42731 11.0293 4.17622 11.0293H2.65996C2.40886 11.0293 2.20508 11.2331 2.20508 11.4842V13.0004C2.20508 13.2515 2.40886 13.4553 2.65996 13.4553Z" fill="#00205C"/>
<path d="M6.90605 9.81664H8.42231C8.6734 9.81664 8.87719 9.61286 8.87719 9.36177V7.8455C8.87719 7.59441 8.6734 7.39062 8.42231 7.39062H6.90605C6.65496 7.39062 6.45117 7.59441 6.45117 7.8455V9.36177C6.45117 9.61286 6.65496 9.81664 6.90605 9.81664Z" fill="#00205C"/>
<path d="M6.90605 13.4553H8.42231C8.6734 13.4553 8.87719 13.2515 8.87719 13.0004V11.4842C8.87719 11.2331 8.6734 11.0293 8.42231 11.0293H6.90605C6.65496 11.0293 6.45117 11.2331 6.45117 11.4842V13.0004C6.45117 13.2515 6.65496 13.4553 6.90605 13.4553Z" fill="#00205C"/>
<path d="M11.1502 9.81664H12.6665C12.9175 9.81664 13.1213 9.61286 13.1213 9.36177V7.8455C13.1213 7.59441 12.9175 7.39062 12.6665 7.39062H11.1502C10.8991 7.39062 10.6953 7.59441 10.6953 7.8455V9.36177C10.6953 9.61286 10.8991 9.81664 11.1502 9.81664Z" fill="#00205C"/>
<path d="M13.1214 2.53827H12.5149V1.32526C12.5149 0.990465 12.2432 0.71875 11.9084 0.71875H11.3019C10.9671 0.71875 10.6954 0.990465 10.6954 1.32526V2.53827H4.63031V1.32526C4.63031 0.990465 4.35859 0.71875 4.0238 0.71875H3.4173C3.0825 0.71875 2.81079 0.990465 2.81079 1.32526V2.53827H2.20428C1.20112 2.53827 0.384766 3.35463 0.384766 4.35779V13.4554C0.384766 14.4585 1.20112 15.2749 2.20428 15.2749H13.1214C14.1246 15.2749 14.9409 14.4585 14.9409 13.4554V4.35779C14.9409 3.35463 14.1246 2.53827 13.1214 2.53827ZM13.7279 13.4554C13.7279 13.7896 13.4556 14.0619 13.1214 14.0619H2.20428C1.8701 14.0619 1.59778 13.7896 1.59778 13.4554V6.80807H13.7279V13.4554Z" fill="#00205C"/>
</g>
<defs>
<clipPath id="clip0_681_39819">
<rect width="14.5561" height="14.5561" fill="white" transform="translate(0.384766 0.720703)"/>
</clipPath>
</defs>
</svg>
