<svg width="15" height="16" viewBox="0 0 15 16" fill="none" xmlns="http://www.w3.org/2000/svg">
<g clip-path="url(#clip0_681_39829)">
<path d="M7.55947 7.83766C9.17787 7.83766 10.49 6.24405 10.49 4.27823C10.49 2.31236 10.0592 0.71875 7.55947 0.71875C5.05977 0.71875 4.62891 2.31236 4.62891 4.27823C4.62891 6.24405 5.941 7.83766 7.55947 7.83766Z" fill="#00205C"/>
<path d="M2.02597 13.273C2.02547 13.1523 2.02496 13.239 2.02597 13.273V13.273Z" fill="#00205C"/>
<path d="M13.0938 13.3675C13.0953 13.3344 13.0943 13.1382 13.0938 13.3675V13.3675Z" fill="#00205C"/>
<path d="M13.0911 13.1313C13.0369 9.70677 12.5896 8.73096 9.16713 8.11328C9.16713 8.11328 8.68537 8.72718 7.56246 8.72718C6.43956 8.72718 5.95771 8.11328 5.95771 8.11328C2.57258 8.72422 2.09813 9.68556 2.03574 13.02C2.03063 13.2923 2.02826 13.3066 2.02734 13.275C2.02755 13.3342 2.0278 13.4438 2.0278 13.6348C2.0278 13.6348 2.84261 15.2774 7.56246 15.2774C12.2822 15.2774 13.0971 13.6348 13.0971 13.6348C13.0971 13.5121 13.0972 13.4267 13.0973 13.3687C13.0964 13.3882 13.0946 13.3503 13.0911 13.1313Z" fill="#00205C"/>
</g>
<defs>
<clipPath id="clip0_681_39829">
<rect width="14.5561" height="14.5561" fill="white" transform="translate(0.283203 0.720703)"/>
</clipPath>
</defs>
</svg>
