<svg width="10" height="11" viewBox="0 0 10 11" fill="none" xmlns="http://www.w3.org/2000/svg">
<g clip-path="url(#clip0_859_339)">
<path d="M5.91616 5.0864L9.80997 1.19248C10.0634 0.939196 10.0634 0.529672 9.80997 0.276388C9.55668 0.0231049 9.14716 0.0231049 8.89388 0.276388L4.99995 4.17031L1.10614 0.276388C0.852742 0.0231049 0.443335 0.0231049 0.190052 0.276388C-0.0633506 0.529672 -0.0633506 0.939196 0.190052 1.19248L4.08386 5.0864L0.190052 8.98032C-0.0633506 9.2336 -0.0633506 9.64313 0.190052 9.89641C0.316278 10.0228 0.482247 10.0862 0.648098 10.0862C0.813948 10.0862 0.979799 10.0228 1.10614 9.89641L4.99995 6.00249L8.89388 9.89641C9.02022 10.0228 9.18607 10.0862 9.35192 10.0862C9.51777 10.0862 9.68362 10.0228 9.80997 9.89641C10.0634 9.64313 10.0634 9.2336 9.80997 8.98032L5.91616 5.0864Z" fill="white"/>
</g>
<defs>
<clipPath id="clip0_859_339">
<rect width="10" height="10" fill="white" transform="translate(0 0.078125)"/>
</clipPath>
</defs>
</svg>
