<svg xmlns="http://www.w3.org/2000/svg" xmlns:xlink="http://www.w3.org/1999/xlink" viewBox="0 0 352.07 84.8"><defs><style>.cls-1{fill:none;}.cls-2{clip-path:url(#clip-path);}.cls-3{clip-path:url(#clip-path-2);}.cls-4{fill:#001f5b;}.cls-5{fill:#939598;}.cls-6{opacity:0.48;}.cls-7{clip-path:url(#clip-path-17);}.cls-8{opacity:0.75;}.cls-9{clip-path:url(#clip-path-20);}</style><clipPath id="clip-path" transform="translate(-14.55 -29.36)"><rect class="cls-1" width="376.93" height="144"/></clipPath><clipPath id="clip-path-2" transform="translate(-14.55 -29.36)"><rect class="cls-1" y="5.66" width="376.93" height="144"/></clipPath><clipPath id="clip-path-17" transform="translate(-14.55 -29.36)"><rect class="cls-1" x="297.92" y="29.11" width="68.96" height="85.3"/></clipPath><clipPath id="clip-path-20" transform="translate(-14.55 -29.36)"><rect class="cls-1" x="274.02" y="29.11" width="68.96" height="85.3"/></clipPath></defs><title>RR-NEW-LOGO</title><g id="Layer_2" data-name="Layer 2"><g id="Layer_1-2" data-name="Layer 1"><g class="cls-2"><g class="cls-3"><path class="cls-4" d="M35.82,33.7h13c6.67,0,10.5,1,12.82,2.73,3.54,2.55,5.45,6.9,5.45,11.66a14,14,0,0,1-2.32,8,11.22,11.22,0,0,1-7.07,4.64l9.57,15.89h-9l-11.54-20h1.68c2.84,0,5.92-.17,7.71-1.57a8,8,0,0,0,2.73-6.26,7.37,7.37,0,0,0-3.19-6.21,11.42,11.42,0,0,0-6.09-1.33h-5V76.62H35.82Z" transform="translate(-14.55 -29.36)"/></g><g class="cls-3"><polygon class="cls-4" points="57.87 4.34 81.94 4.34 81.94 11.94 66.51 11.94 66.51 21.68 81.65 21.68 81.65 29.28 66.51 29.28 66.51 39.66 81.94 39.66 81.94 47.26 57.87 47.26 57.87 4.34"/></g><g class="cls-3"><polygon class="cls-4" points="88.78 47.26 88.78 4.34 97.43 4.34 97.43 21.57 113.95 21.57 113.95 4.34 122.6 4.34 122.6 47.26 113.95 47.26 113.95 29.16 97.43 29.16 97.43 47.26 88.78 47.26"/></g><g class="cls-3"><path class="cls-4" d="M151,76.62h-9.39L159,33.7h7.6l17,42.92h-9.45L171,68.21H154.08Zm11.43-32.71-6.09,17.4H168.7Z" transform="translate(-14.55 -29.36)"/></g><g class="cls-3"><path class="cls-4" d="M188.13,33.7h14.09c4.18,0,7.42.87,9.63,2.55,2.9,1.92,4.18,5,4.18,8.58a9.78,9.78,0,0,1-5.28,8.82A10.31,10.31,0,0,1,218.23,64a11.54,11.54,0,0,1-4.64,9.63c-3.42,2.61-6.15,3-12.24,3H188.13Zm8.64,17.17h4.81a10,10,0,0,0,3.71-.58A4.37,4.37,0,0,0,207.73,46a4.18,4.18,0,0,0-2.38-4.06,9.09,9.09,0,0,0-3.83-.64h-4.76Zm0,18.15h6.09a10.28,10.28,0,0,0,4-.64,4.9,4.9,0,0,0,3.07-4.93,4.83,4.83,0,0,0-3-4.76,11,11,0,0,0-4.35-.58h-5.8Z" transform="translate(-14.55 -29.36)"/></g><g class="cls-3"><path class="cls-5" d="M14.55,82h8.37c4.62,0,7,.64,8.59,1.73a9.45,9.45,0,0,1,3.9,8,9.6,9.6,0,0,1-1.66,5.65,7.91,7.91,0,0,1-5.7,3.23l6.94,11H30L21.86,98.26h1.06c2,0,4.51-.09,5.9-1.28a6.31,6.31,0,0,0,2.06-4.84,6,6,0,0,0-2.55-5c-1.27-.81-2.9-1-5-1h-4v25.45H14.55Z" transform="translate(-14.55 -29.36)"/></g><g class="cls-3"><polygon class="cls-5" points="24.52 52.66 41.05 52.66 41.05 56.81 29.23 56.81 29.23 65.21 40.89 65.21 40.89 69.36 29.23 69.36 29.23 78.11 41.05 78.11 41.05 82.26 24.52 82.26 24.52 52.66"/></g><g class="cls-3"><path class="cls-5" d="M63.72,102.86c.32,4.44,3.43,5.33,5,5.33a4.83,4.83,0,0,0,4.92-4.72c0-3.3-2.8-4.06-6.59-5.46-2.31-.75-7.47-2.45-7.47-8s4.66-8.49,9.32-8.49c3.81,0,8.57,2.06,8.92,8.16H73.14c-.29-1.61-1-4.19-4.42-4.19a4.22,4.22,0,0,0-4.46,4.17c0,2.86,2.18,3.58,6.94,5.37,3.69,1.55,7.12,3.44,7.12,8.23s-3.25,8.94-9.55,8.94c-5.88,0-9.66-3.59-9.73-9.3Z" transform="translate(-14.55 -29.36)"/></g><g class="cls-3"><path class="cls-5" d="M81.12,97a15.5,15.5,0,1,1,15.47,15.18A15.19,15.19,0,0,1,81.12,97Zm4.71-.2c0,6.15,4.53,11.2,10.85,11.2,6.47,0,10.74-5.4,10.74-11.17s-4.27-11.21-10.78-11.21-10.8,5.18-10.8,11.15Z" transform="translate(-14.55 -29.36)"/></g><g class="cls-3"><path class="cls-5" d="M121.16,82V100.5a8.69,8.69,0,0,0,1.11,5.15,5.22,5.22,0,0,0,4.56,2.37,5.1,5.1,0,0,0,4.48-2.28c1.09-1.69,1.09-3.31,1.09-5.24V82h4.71V100.5c0,3.94-.63,6.94-3.23,9.1a10.19,10.19,0,0,1-7,2.57,10.63,10.63,0,0,1-7.16-2.55c-2.91-2.57-3.25-5.51-3.23-9.12V82Z" transform="translate(-14.55 -29.36)"/></g><g class="cls-3"><path class="cls-5" d="M142.58,82H151c4.62,0,7,.64,8.59,1.73a9.46,9.46,0,0,1,3.9,8,9.6,9.6,0,0,1-1.66,5.65,7.91,7.91,0,0,1-5.7,3.23l6.94,11h-5l-8.15-13.36h1.06c2,0,4.51-.09,5.9-1.28a6.31,6.31,0,0,0,2.06-4.84,6,6,0,0,0-2.55-5c-1.27-.81-2.9-1-5-1h-4v25.45h-4.71Z" transform="translate(-14.55 -29.36)"/></g><g class="cls-3"><path class="cls-5" d="M195.33,102.62a14.67,14.67,0,0,1-14,9.54,15.34,15.34,0,1,1,0-30.68,15,15,0,0,1,14.11,9.7h-5a10.4,10.4,0,0,0-9.13-5.55c-6.32,0-10.72,5.16-10.72,11.15,0,6.15,4.51,11.24,10.74,11.24a10.6,10.6,0,0,0,9.11-5.39Z" transform="translate(-14.55 -29.36)"/></g><g class="cls-3"><polygon class="cls-5" points="185.01 52.66 201.53 52.66 201.53 56.81 189.72 56.81 189.72 65.21 201.38 65.21 201.38 69.36 189.72 69.36 189.72 78.11 201.53 78.11 201.53 82.26 185.01 82.26 185.01 52.66"/></g><g class="cls-3"><path class="cls-5" d="M224.21,102.86c.32,4.44,3.43,5.33,5,5.33a4.84,4.84,0,0,0,4.92-4.72c0-3.3-2.8-4.06-6.59-5.46-2.31-.75-7.47-2.45-7.47-8s4.66-8.49,9.32-8.49c3.81,0,8.57,2.06,8.92,8.16h-4.66c-.29-1.61-1-4.19-4.42-4.19a4.22,4.22,0,0,0-4.46,4.17c0,2.86,2.18,3.58,6.94,5.37,3.69,1.55,7.12,3.44,7.12,8.23s-3.25,8.94-9.55,8.94c-5.88,0-9.66-3.59-9.73-9.3Z" transform="translate(-14.55 -29.36)"/></g><g class="cls-2"><g class="cls-6"><g class="cls-7"><polygon class="cls-5" points="352.07 42.4 283.61 84.8 283.61 0 352.07 42.4"/></g></g></g><g class="cls-3"><polygon class="cls-4" points="304.29 42.4 235.83 84.8 235.83 0 304.29 42.4"/></g><g class="cls-2"><g class="cls-8"><g class="cls-9"><polygon class="cls-4" points="328.18 42.4 259.72 84.8 259.72 0 328.18 42.4"/></g></g></g></g></g></g></svg>