<svg width="580" height="581" viewBox="0 0 580 581" fill="none" xmlns="http://www.w3.org/2000/svg">
<ellipse rx="15.4376" ry="9.65012" transform="matrix(-0.836945 0.547287 0.547288 0.836945 313.202 19.5273)" fill="#55C1F9"/>
<path d="M300.281 530.692C293.931 537.855 291.121 547.637 284.702 554.739C278.479 561.624 268.986 565.415 259.722 564.709C254.059 564.278 247.76 561.41 246.506 555.867C245.431 551.11 248.459 545.901 246.564 541.407C245.048 537.811 240.901 536.094 237.041 535.542C233.18 534.991 229.157 535.223 225.493 533.884C218 531.15 214.066 521.769 216.49 514.176C218.915 506.582 226.701 501.369 234.662 500.964C239.981 500.695 245.246 502.287 250.572 502.256C261.538 502.193 271.454 495.187 278.13 486.493C284.805 477.8 288.891 467.453 293.575 457.542C296.815 450.686 301.018 443.408 308.19 440.952C316.108 438.237 325.35 442.95 329.296 450.346C333.244 457.744 332.531 466.979 329.078 474.605C326.724 479.806 323.104 485.511 325.393 490.75C328.465 497.786 339.825 497.95 342.797 505.031C344.571 509.257 342.274 514.35 338.558 517.021C332.541 521.348 326.137 519.571 319.433 520.518C312.13 521.549 305.18 525.167 300.281 530.692Z" fill="#D47A34"/>
</svg>
