<svg width="129" height="125" viewBox="0 0 129 125" fill="none" xmlns="http://www.w3.org/2000/svg">
<path d="M85.2813 90.6922C78.9308 97.8551 76.1207 107.637 69.7023 114.739C63.4788 121.624 53.9861 125.415 44.7223 124.709C39.0593 124.278 32.7595 121.41 31.5062 115.867C30.4313 111.11 33.4587 105.901 31.5639 101.407C30.0481 97.8113 25.9011 96.0936 22.0406 95.5421C18.1802 94.9906 14.1571 95.2229 10.4933 93.8844C2.99983 91.1499 -0.933685 81.769 1.49047 74.1756C3.91462 66.5822 11.7005 61.3688 19.6617 60.9645C24.9814 60.695 30.2457 62.2865 35.5717 62.2565C46.5384 62.1934 56.4544 55.1868 63.1299 46.4932C69.8054 37.7995 73.891 27.4534 78.5752 17.542C81.8148 10.6862 86.0181 3.40772 93.1896 0.951624C101.108 -1.76264 110.35 2.95015 114.296 10.3463C118.244 17.7443 117.531 26.9793 114.078 34.6053C111.724 39.8061 108.104 45.5114 110.393 50.7503C113.465 57.7863 124.825 57.95 127.797 65.0312C129.57 69.2571 127.274 74.3496 123.558 77.0214C117.541 81.3479 111.137 79.5708 104.433 80.5175C97.1298 81.5493 90.1798 85.1665 85.2813 90.6922Z" fill="#D47A34"/>
</svg>
