<svg width="157" height="150" viewBox="0 0 157 150" fill="none" xmlns="http://www.w3.org/2000/svg">
<path d="M91.2824 99.6961C84.9319 106.859 82.1218 116.641 75.7034 123.743C69.4799 130.628 59.9872 134.419 50.7234 133.713C45.0604 133.282 38.7606 130.414 37.5073 124.871C36.4324 120.114 39.4598 114.905 37.565 110.411C36.0492 106.815 31.9022 105.098 28.0417 104.546C24.1813 103.995 20.1582 104.227 16.4944 102.888C9.00093 100.154 5.06741 90.7729 7.49157 83.1795C9.91572 75.5861 17.7016 70.3728 25.6628 69.9684C30.9825 69.6989 36.2468 71.2904 41.5728 71.2604C52.5395 71.1973 62.4555 64.1907 69.131 55.4971C75.8065 46.8034 79.8921 36.4573 84.5763 26.5459C87.8159 19.6901 92.0192 12.4116 99.1907 9.95553C107.109 7.24126 116.351 11.9541 120.297 19.3502C124.245 26.7482 123.532 35.9832 120.079 43.6092C117.725 48.8101 114.105 54.5153 116.394 59.7542C119.467 66.7902 130.826 66.9539 133.798 74.0351C135.572 78.261 133.275 83.3535 129.559 86.0253C123.542 90.3518 117.138 88.5747 110.434 89.5214C103.131 90.5532 96.1809 94.1704 91.2824 99.6961Z" fill="#D47A34"/>
</svg>
