<svg width="10" height="10" viewBox="0 0 10 10" fill="none" xmlns="http://www.w3.org/2000/svg">
<path d="M9.6445 7.8803L7.99861 6.23441C8.29786 5.63591 8.49736 4.93766 8.49736 4.2394C8.49736 1.89526 6.6021 0 4.25796 0C1.91382 0 0.0185547 1.89526 0.0185547 4.2394C0.0185547 6.58354 1.91382 8.4788 4.25796 8.4788C4.95621 8.4788 5.65447 8.2793 6.25297 7.98005L7.89886 9.62593C8.39761 10.1247 9.14574 10.1247 9.6445 9.62593C10.0934 9.12718 10.0934 8.37905 9.6445 7.8803ZM4.25796 7.4813C2.46245 7.4813 1.01606 6.03491 1.01606 4.2394C1.01606 2.44389 2.46245 0.997506 4.25796 0.997506C6.05347 0.997506 7.49986 2.44389 7.49986 4.2394C7.49986 6.03491 6.05347 7.4813 4.25796 7.4813Z" fill="#222A59"/>
</svg>
